<svg xmlns="http://www.w3.org/2000/svg" width="1200" height="600">
  <rect width="1200" height="600" fill="#012169"/>
  <polygon points="0,0 500,0 1200,350 1200,600 700,600 0,250" fill="#FFFFFF"/>
  <polygon points="1200,0 700,0 0,350 0,600 500,600 1200,250" fill="#FFFFFF"/>
  <polygon points="0,0 450,0 1200,330 1200,450 750,450 0,120" fill="#C8102E"/>
  <polygon points="1200,0 750,0 0,330 0,450 450,450 1200,120" fill="#C8102E"/>
  <rect x="500" width="200" height="600" fill="#FFFFFF"/>
  <rect y="250" width="1200" height="100" fill="#FFFFFF"/>
  <rect x="525" width="150" height="600" fill="#C8102E"/>
  <rect y="275" width="1200" height="50" fill="#C8102E"/>
</svg>